<mxfile host="app.diagrams.net" modified="2024-02-17T16:18:56.038Z" agent="Mozilla/5.0 (Windows NT 10.0; Win64; x64) AppleWebKit/537.36 (KHTML, like Gecko) Chrome/121.0.0.0 Safari/537.36" etag="OfieXh8LT6nr5-_B53cd" version="23.1.5" type="github">
  <diagram id="C5RBs43oDa-KdzZeNtuy" name="Items parsingservice.parsingmodel">
    <mxGraphModel dx="1078" dy="506" grid="1" gridSize="10" guides="1" tooltips="1" connect="1" arrows="1" fold="1" page="1" pageScale="1" pageWidth="827" pageHeight="1169" math="0" shadow="0">
      <root>
        <mxCell id="WIyWlLk6GJQsqaUBKTNV-0" />
        <mxCell id="WIyWlLk6GJQsqaUBKTNV-1" parent="WIyWlLk6GJQsqaUBKTNV-0" />
        <mxCell id="QCb1lqXT0qKZJ4PllkGg-21" style="edgeStyle=none;curved=1;rounded=0;orthogonalLoop=1;jettySize=auto;html=1;entryX=1;entryY=0;entryDx=0;entryDy=0;fontFamily=Architects Daughter;fontSource=https%3A%2F%2Ffonts.googleapis.com%2Fcss%3Ffamily%3DArchitects%2BDaughter;fontSize=16;startSize=14;endArrow=open;endSize=14;sourcePerimeterSpacing=8;targetPerimeterSpacing=8;exitX=0;exitY=1;exitDx=0;exitDy=0;" edge="1" parent="WIyWlLk6GJQsqaUBKTNV-1" source="QCb1lqXT0qKZJ4PllkGg-3" target="LR_DoWGOp1BcMRjhh9_P-2">
          <mxGeometry relative="1" as="geometry">
            <mxPoint x="284" y="120" as="targetPoint" />
          </mxGeometry>
        </mxCell>
        <mxCell id="QCb1lqXT0qKZJ4PllkGg-22" style="edgeStyle=none;curved=1;rounded=0;orthogonalLoop=1;jettySize=auto;html=1;exitX=0.5;exitY=1;exitDx=0;exitDy=0;fontFamily=Architects Daughter;fontSource=https%3A%2F%2Ffonts.googleapis.com%2Fcss%3Ffamily%3DArchitects%2BDaughter;fontSize=16;startSize=14;endArrow=open;endSize=14;sourcePerimeterSpacing=8;targetPerimeterSpacing=8;entryX=0.5;entryY=0;entryDx=0;entryDy=0;" edge="1" parent="WIyWlLk6GJQsqaUBKTNV-1" source="QCb1lqXT0qKZJ4PllkGg-3" target="QCb1lqXT0qKZJ4PllkGg-13">
          <mxGeometry relative="1" as="geometry" />
        </mxCell>
        <mxCell id="QCb1lqXT0qKZJ4PllkGg-23" style="edgeStyle=none;curved=1;rounded=0;orthogonalLoop=1;jettySize=auto;html=1;exitX=1;exitY=1;exitDx=0;exitDy=0;fontFamily=Architects Daughter;fontSource=https%3A%2F%2Ffonts.googleapis.com%2Fcss%3Ffamily%3DArchitects%2BDaughter;fontSize=16;startSize=14;endArrow=open;endSize=14;sourcePerimeterSpacing=8;targetPerimeterSpacing=8;entryX=0;entryY=0;entryDx=0;entryDy=0;" edge="1" parent="WIyWlLk6GJQsqaUBKTNV-1" source="QCb1lqXT0qKZJ4PllkGg-3" target="QCb1lqXT0qKZJ4PllkGg-14">
          <mxGeometry relative="1" as="geometry" />
        </mxCell>
        <mxCell id="QCb1lqXT0qKZJ4PllkGg-3" value="Items" style="rounded=1;whiteSpace=wrap;html=1;fontFamily=Times New Roman;fontSize=22;align=center;fontStyle=1;fontColor=#000000;" vertex="1" parent="WIyWlLk6GJQsqaUBKTNV-1">
          <mxGeometry x="364" width="100" height="50" as="geometry" />
        </mxCell>
        <mxCell id="QCb1lqXT0qKZJ4PllkGg-13" value="Products" style="rounded=1;whiteSpace=wrap;html=1;fontFamily=Times New Roman;fontSize=22;align=center;fontStyle=1;fontColor=#000000;" vertex="1" parent="WIyWlLk6GJQsqaUBKTNV-1">
          <mxGeometry x="364" y="120" width="100" height="50" as="geometry" />
        </mxCell>
        <mxCell id="99m85VTDLGhnW7In0Fr_-3" style="edgeStyle=none;curved=1;rounded=0;orthogonalLoop=1;jettySize=auto;html=1;exitX=0;exitY=1;exitDx=0;exitDy=0;entryX=0.5;entryY=0;entryDx=0;entryDy=0;fontFamily=Architects Daughter;fontSource=https%3A%2F%2Ffonts.googleapis.com%2Fcss%3Ffamily%3DArchitects%2BDaughter;fontSize=16;startSize=14;endArrow=open;endSize=14;sourcePerimeterSpacing=8;targetPerimeterSpacing=8;" edge="1" parent="WIyWlLk6GJQsqaUBKTNV-1" source="QCb1lqXT0qKZJ4PllkGg-14" target="99m85VTDLGhnW7In0Fr_-0">
          <mxGeometry relative="1" as="geometry" />
        </mxCell>
        <mxCell id="99m85VTDLGhnW7In0Fr_-4" style="edgeStyle=none;curved=1;rounded=0;orthogonalLoop=1;jettySize=auto;html=1;exitX=0.5;exitY=1;exitDx=0;exitDy=0;entryX=0.5;entryY=0;entryDx=0;entryDy=0;fontFamily=Architects Daughter;fontSource=https%3A%2F%2Ffonts.googleapis.com%2Fcss%3Ffamily%3DArchitects%2BDaughter;fontSize=16;startSize=14;endArrow=open;endSize=14;sourcePerimeterSpacing=8;targetPerimeterSpacing=8;" edge="1" parent="WIyWlLk6GJQsqaUBKTNV-1" source="QCb1lqXT0qKZJ4PllkGg-14" target="99m85VTDLGhnW7In0Fr_-1">
          <mxGeometry relative="1" as="geometry" />
        </mxCell>
        <mxCell id="99m85VTDLGhnW7In0Fr_-5" style="edgeStyle=none;curved=1;rounded=0;orthogonalLoop=1;jettySize=auto;html=1;exitX=1;exitY=1;exitDx=0;exitDy=0;entryX=0.5;entryY=0;entryDx=0;entryDy=0;fontFamily=Architects Daughter;fontSource=https%3A%2F%2Ffonts.googleapis.com%2Fcss%3Ffamily%3DArchitects%2BDaughter;fontSize=16;startSize=14;endArrow=open;endSize=14;sourcePerimeterSpacing=8;targetPerimeterSpacing=8;" edge="1" parent="WIyWlLk6GJQsqaUBKTNV-1" source="QCb1lqXT0qKZJ4PllkGg-14" target="99m85VTDLGhnW7In0Fr_-2">
          <mxGeometry relative="1" as="geometry" />
        </mxCell>
        <mxCell id="QCb1lqXT0qKZJ4PllkGg-14" value="Materials" style="rounded=1;whiteSpace=wrap;html=1;fontFamily=Times New Roman;fontSize=22;align=center;fontStyle=1;fontColor=#000000;" vertex="1" parent="WIyWlLk6GJQsqaUBKTNV-1">
          <mxGeometry x="544" y="120" width="100" height="50" as="geometry" />
        </mxCell>
        <mxCell id="LR_DoWGOp1BcMRjhh9_P-0" style="edgeStyle=none;curved=1;rounded=0;orthogonalLoop=1;jettySize=auto;html=1;exitX=0;exitY=1;exitDx=0;exitDy=0;entryX=0.5;entryY=0;entryDx=0;entryDy=0;fontFamily=Architects Daughter;fontSource=https%3A%2F%2Ffonts.googleapis.com%2Fcss%3Ffamily%3DArchitects%2BDaughter;fontSize=16;startSize=14;endArrow=open;endSize=14;sourcePerimeterSpacing=8;targetPerimeterSpacing=8;" edge="1" parent="WIyWlLk6GJQsqaUBKTNV-1" source="LR_DoWGOp1BcMRjhh9_P-2" target="LR_DoWGOp1BcMRjhh9_P-3">
          <mxGeometry relative="1" as="geometry" />
        </mxCell>
        <mxCell id="LR_DoWGOp1BcMRjhh9_P-1" style="edgeStyle=none;curved=1;rounded=0;orthogonalLoop=1;jettySize=auto;html=1;exitX=1;exitY=1;exitDx=0;exitDy=0;entryX=0.5;entryY=0;entryDx=0;entryDy=0;fontFamily=Architects Daughter;fontSource=https%3A%2F%2Ffonts.googleapis.com%2Fcss%3Ffamily%3DArchitects%2BDaughter;fontSize=16;startSize=14;endArrow=open;endSize=14;sourcePerimeterSpacing=8;targetPerimeterSpacing=8;" edge="1" parent="WIyWlLk6GJQsqaUBKTNV-1" source="LR_DoWGOp1BcMRjhh9_P-2" target="LR_DoWGOp1BcMRjhh9_P-4">
          <mxGeometry relative="1" as="geometry" />
        </mxCell>
        <mxCell id="LR_DoWGOp1BcMRjhh9_P-2" value="Recipes" style="rounded=1;whiteSpace=wrap;html=1;fontFamily=Times New Roman;fontSize=22;align=center;fontStyle=1;fontColor=#000000;" vertex="1" parent="WIyWlLk6GJQsqaUBKTNV-1">
          <mxGeometry x="180" y="120" width="100" height="50" as="geometry" />
        </mxCell>
        <mxCell id="LR_DoWGOp1BcMRjhh9_P-3" value="Blueprints" style="rounded=1;whiteSpace=wrap;html=1;fontFamily=Times New Roman;fontSize=22;align=center;fontStyle=1;fontColor=#000000;" vertex="1" parent="WIyWlLk6GJQsqaUBKTNV-1">
          <mxGeometry x="110" y="200" width="100" height="50" as="geometry" />
        </mxCell>
        <mxCell id="LR_DoWGOp1BcMRjhh9_P-4" value="Reactions" style="rounded=1;whiteSpace=wrap;html=1;fontFamily=Times New Roman;fontSize=22;align=center;fontStyle=1;fontColor=#000000;" vertex="1" parent="WIyWlLk6GJQsqaUBKTNV-1">
          <mxGeometry x="250" y="200" width="100" height="50" as="geometry" />
        </mxCell>
        <mxCell id="99m85VTDLGhnW7In0Fr_-0" value="Refinable" style="rounded=1;whiteSpace=wrap;html=1;fontFamily=Times New Roman;fontSize=22;align=center;fontStyle=1;fontColor=#000000;" vertex="1" parent="WIyWlLk6GJQsqaUBKTNV-1">
          <mxGeometry x="434" y="200" width="100" height="50" as="geometry" />
        </mxCell>
        <mxCell id="99m85VTDLGhnW7In0Fr_-1" value="Non-refinable" style="rounded=1;whiteSpace=wrap;html=1;fontFamily=Times New Roman;fontSize=22;align=center;fontStyle=1;fontColor=#000000;" vertex="1" parent="WIyWlLk6GJQsqaUBKTNV-1">
          <mxGeometry x="544" y="200" width="100" height="50" as="geometry" />
        </mxCell>
        <mxCell id="99m85VTDLGhnW7In0Fr_-2" value="Planetary Materials" style="rounded=1;whiteSpace=wrap;html=1;fontFamily=Times New Roman;fontSize=22;align=center;fontStyle=1;fontColor=#000000;" vertex="1" parent="WIyWlLk6GJQsqaUBKTNV-1">
          <mxGeometry x="654" y="200" width="100" height="50" as="geometry" />
        </mxCell>
      </root>
    </mxGraphModel>
  </diagram>
</mxfile>
